<svg width="61" height="61" viewBox="0 0 61 61" fill="none" xmlns="http://www.w3.org/2000/svg">
<path d="M23.5456 6.95009L7.43804 23.0662C3.60174 26.9045 3.60174 33.1277 7.43804 36.966L23.5456 53.0821C27.3819 56.9205 33.6017 56.9205 37.438 53.0821L53.5456 36.966C57.3819 33.1277 57.3819 26.9045 53.5456 23.0662L37.438 6.95009C33.6017 3.11175 27.3819 3.11175 23.5456 6.95009Z" fill="#276A49"/>
<path d="M30.7174 7.01611L37.0657 14.919L47.1408 13.8219L46.0444 23.9024L53.943 30.2541L46.0444 36.6058L47.1408 46.6862L37.0657 45.5892L30.7174 53.492L24.3691 45.5892L14.294 46.6862L15.3904 36.6058L7.49181 30.2541L15.3904 23.9024L14.294 13.8219L24.3691 14.919L30.7174 7.01611Z" fill="#FFCE56" stroke="#4C241D" stroke-width="3.5" stroke-linecap="round" stroke-linejoin="round"/>
<path d="M19.3102 18.837L26.4462 19.6136L30.9433 14.0161L35.4403 19.6136L42.5764 18.837L41.8003 25.9769L47.3947 30.4763L41.8003 34.9758L42.5764 42.1156L35.4403 41.3391L30.9433 46.9366L26.4462 41.3391L19.3102 42.1156L20.0863 34.9758L14.4918 30.4763L20.0863 25.9769L19.3102 18.837Z" fill="white" stroke="#4C241D" stroke-width="2.5" stroke-linecap="round" stroke-linejoin="round"/>
<g clip-path="url(#clip0_2709_89)">
<path d="M39.2318 37.95C38.7687 36.8529 38.0965 35.8563 37.2528 35.0159C36.4117 34.1729 35.4153 33.5009 34.3187 33.0368C34.3088 33.0319 34.299 33.0295 34.2892 33.0246C35.8189 31.9196 36.8133 30.1199 36.8133 28.0893C36.8133 24.7254 34.0879 22 30.724 22C27.3602 22 24.6347 24.7254 24.6347 28.0893C24.6347 30.1199 25.6291 31.9196 27.1588 33.027C27.149 33.0319 27.1392 33.0344 27.1294 33.0393C26.0294 33.5033 25.0423 34.1688 24.1952 35.0183C23.3523 35.8594 22.6803 36.8558 22.2162 37.9525C21.7603 39.0261 21.5144 40.1771 21.4919 41.3433C21.4912 41.3695 21.4958 41.3956 21.5054 41.42C21.515 41.4444 21.5293 41.4666 21.5476 41.4854C21.5659 41.5042 21.5878 41.5191 21.612 41.5292C21.6361 41.5394 21.6621 41.5447 21.6883 41.5446H23.1615C23.2695 41.5446 23.3555 41.4587 23.3579 41.3531C23.407 39.4576 24.1682 37.6824 25.5137 36.3368C26.9059 34.9446 28.7548 34.1786 30.724 34.1786C32.6932 34.1786 34.5421 34.9446 35.9343 36.3368C37.2798 37.6824 38.041 39.4576 38.0901 41.3531C38.0925 41.4612 38.1785 41.5446 38.2865 41.5446H39.7597C39.7859 41.5447 39.8119 41.5394 39.8361 41.5292C39.8602 41.5191 39.8821 41.5042 39.9004 41.4854C39.9187 41.4666 39.9331 41.4444 39.9426 41.42C39.9522 41.3956 39.9568 41.3695 39.9562 41.3433C39.9316 40.1696 39.6885 39.0279 39.2318 37.95ZM30.724 32.3125C29.597 32.3125 28.5363 31.873 27.7383 31.075C26.9403 30.277 26.5008 29.2163 26.5008 28.0893C26.5008 26.9623 26.9403 25.9016 27.7383 25.1036C28.5363 24.3056 29.597 23.8661 30.724 23.8661C31.851 23.8661 32.9117 24.3056 33.7097 25.1036C34.5077 25.9016 34.9472 26.9623 34.9472 28.0893C34.9472 29.2163 34.5077 30.277 33.7097 31.075C32.9117 31.873 31.851 32.3125 30.724 32.3125Z" fill="#4C241D"/>
</g>
<defs>
<clipPath id="clip0_2709_89">
<rect width="22" height="22" fill="white" transform="translate(19.4918 19)"/>
</clipPath>
</defs>
</svg>
