<svg width="44" height="44" viewBox="0 0 44 44" fill="none" xmlns="http://www.w3.org/2000/svg">
<path d="M41.4167 22C41.4167 32.9076 32.5743 41.75 21.6667 41.75C10.759 41.75 1.91667 32.9076 1.91667 22C1.91667 11.0924 10.759 2.25 21.6667 2.25C32.5743 2.25 41.4167 11.0924 41.4167 22Z" fill="#FFCE56" stroke="#4C241D" stroke-width="3.5" stroke-linecap="round" stroke-linejoin="round"/>
<path d="M21.6666 36.1425C29.4985 36.1425 35.8475 29.7935 35.8475 21.9616C35.8475 14.1297 29.4985 7.78076 21.6666 7.78076C13.8348 7.78076 7.48579 14.1297 7.48579 21.9616C7.48579 29.7935 13.8348 36.1425 21.6666 36.1425Z" stroke="#4C241D" stroke-width="3" stroke-linecap="round" stroke-linejoin="round" stroke-dasharray="5 5"/>
<path d="M21.1003 32.4492C20.8346 32.4492 20.7018 32.3164 20.7018 32.0508V29.9883C19.3815 29.9492 18.3854 29.7734 17.7135 29.4609C17.0417 29.1406 16.5573 28.793 16.2604 28.418C16.1901 28.3164 16.1276 28.2188 16.0729 28.125C16.0182 28.0312 15.9792 27.9258 15.9557 27.8086C15.9245 27.6523 15.8932 27.4492 15.862 27.1992C15.8307 26.9414 15.8268 26.6445 15.8503 26.3086C15.8581 26.168 15.8854 26.0703 15.9323 26.0156C15.987 25.9531 16.0768 25.9062 16.2018 25.875C16.4284 25.8203 16.7409 25.7891 17.1393 25.7812C17.5456 25.7734 17.8268 25.7773 17.9831 25.793C18.1628 25.8086 18.3034 25.8477 18.405 25.9102C18.5065 25.9648 18.6432 26.0898 18.8151 26.2852C19.026 26.5352 19.2565 26.7461 19.5065 26.918C19.7643 27.0898 20.1628 27.1992 20.7018 27.2461V22.8633C20.5768 22.8242 20.4401 22.7812 20.2917 22.7344C18.8385 22.2969 17.7604 21.7266 17.0573 21.0234C16.3542 20.3203 16.0026 19.2812 16.0026 17.9062C16.0026 17.0078 16.2096 16.2305 16.6237 15.5742C17.0378 14.918 17.5964 14.3945 18.2995 14.0039C19.0104 13.6055 19.8112 13.3555 20.7018 13.2539V11.4141C20.7018 11.1484 20.8346 11.0156 21.1003 11.0156H21.9909C22.2721 11.0156 22.4128 11.1484 22.4128 11.4141V13.2188C23.2643 13.2734 23.9635 13.3984 24.5104 13.5938C25.0651 13.7891 25.4909 14.0039 25.7878 14.2383C26.0925 14.4648 26.2917 14.6562 26.3854 14.8125C26.4479 14.9141 26.487 14.9922 26.5026 15.0469C26.526 15.0938 26.5417 15.1602 26.5495 15.2461C26.5729 15.4883 26.5807 15.7578 26.5729 16.0547C26.5651 16.3516 26.5378 16.6875 26.4909 17.0625C26.4675 17.1875 26.4245 17.2734 26.362 17.3203C26.3073 17.3594 26.2214 17.3789 26.1042 17.3789C25.3464 17.3945 24.7604 17.3555 24.3464 17.2617C24.1823 17.2227 24.0651 17.1836 23.9948 17.1445C23.9323 17.0977 23.8464 17.0039 23.737 16.8633C23.6276 16.7305 23.4753 16.5781 23.28 16.4062C23.0846 16.2344 22.7956 16.1016 22.4128 16.0078V20.2383C22.5221 20.2695 22.6393 20.3047 22.7643 20.3438C23.6628 20.6172 24.4401 20.9414 25.0964 21.3164C25.7604 21.6914 26.2721 22.1758 26.6315 22.7695C26.9987 23.3633 27.1823 24.1289 27.1823 25.0664C27.1823 26.0508 26.9714 26.8828 26.5495 27.5625C26.1354 28.2422 25.5651 28.7773 24.8385 29.168C24.1198 29.5586 23.3112 29.8125 22.4128 29.9297V32.0508C22.4128 32.3164 22.28 32.4492 22.0143 32.4492H21.1003ZM19.2839 17.5781C19.2839 18.0781 19.3893 18.4805 19.6003 18.7852C19.819 19.0898 20.1862 19.3633 20.7018 19.6055V15.9844C19.7565 16.1562 19.2839 16.6875 19.2839 17.5781ZM23.901 25.4297C23.901 24.9531 23.7839 24.5664 23.5495 24.2695C23.3229 23.9727 22.944 23.707 22.4128 23.4727V27.1875C22.8971 27.0938 23.2643 26.9062 23.5143 26.625C23.7721 26.3438 23.901 25.9453 23.901 25.4297Z" fill="#4C241D"/>
</svg>
