<svg width="44" height="46" viewBox="0 0 44 46" fill="none" xmlns="http://www.w3.org/2000/svg">
<g id="side">
<g id="Group 3465058">
<ellipse id="Ellipse 37" cx="20.0437" cy="24.6653" rx="6.51456" ry="6.66705" fill="#F275A9"/>
<ellipse id="Ellipse 38" cx="19.718" cy="37.9994" rx="10.749" ry="6.66705" fill="#F275A9"/>
<path id="Vector" d="M37.3996 21.4162C37.008 21.4836 36.6585 21.7082 36.4279 22.0406C36.1974 22.3731 36.1046 22.7861 36.1701 23.1888C36.3221 24.1225 36.3985 25.0676 36.3984 26.0142C36.402 30.1603 34.9204 34.1625 32.2367 37.2562C30.5671 34.7678 28.2195 32.8426 25.4889 31.7228C26.9557 30.5346 28.0259 28.9058 28.5509 27.063C29.0759 25.2201 29.0296 23.2548 28.4182 21.4404C27.8069 19.6259 26.6611 18.0524 25.14 16.9388C23.619 15.8252 21.7983 15.2268 19.9313 15.2268C18.0642 15.2268 16.2436 15.8252 14.7225 16.9388C13.2015 18.0524 12.0556 19.6259 11.4443 21.4404C10.833 23.2548 10.7866 25.2201 11.3116 27.063C11.8366 28.9058 12.9069 30.5346 14.3736 31.7228C11.6431 32.8426 9.29541 34.7678 7.62581 37.2562C5.52011 34.8157 4.14464 31.8015 3.66479 28.576C3.18494 25.3506 3.62115 22.0513 4.92096 19.0748C6.22077 16.0983 8.32884 13.5713 10.9917 11.7977C13.6546 10.0241 16.7588 9.07939 19.9313 9.07717C20.8517 9.07702 21.7705 9.15556 22.6783 9.31198C23.0681 9.37524 23.4664 9.27763 23.7866 9.04039C24.1068 8.80314 24.323 8.44545 24.3881 8.04513C24.4532 7.6448 24.362 7.23422 24.1343 6.9027C23.9066 6.57118 23.5609 6.34554 23.1723 6.27485C19.1069 5.57142 14.9293 6.21506 11.2427 8.11286C7.55606 10.0107 4.55125 13.0644 2.66205 16.8332C0.77286 20.602 0.0970503 24.8908 0.7322 29.0803C1.36735 33.2699 3.28059 37.1435 6.19569 40.1418C9.11078 43.1401 12.8769 45.1079 16.9502 45.7612C21.0236 46.4144 25.1934 45.7193 28.8576 43.7762C32.5218 41.8331 35.4908 38.7426 37.336 34.9508C39.1811 31.159 39.8069 26.8622 39.123 22.6807C39.0575 22.278 38.8391 21.9185 38.5159 21.6814C38.1927 21.4442 37.7911 21.3488 37.3996 21.4162ZM13.9432 24.4745C13.9432 23.2564 14.2944 22.0656 14.9524 21.0528C15.6104 20.04 16.5456 19.2505 17.6397 18.7844C18.7339 18.3182 19.9379 18.1963 21.0995 18.4339C22.261 18.6716 23.328 19.2581 24.1655 20.1195C25.0029 20.9808 25.5732 22.0782 25.8043 23.273C26.0353 24.4677 25.9167 25.706 25.4635 26.8314C25.0103 27.9568 24.2428 28.9187 23.2581 29.5955C22.2733 30.2722 21.1156 30.6334 19.9313 30.6334C18.3431 30.6334 16.82 29.9845 15.6971 28.8295C14.5741 27.6745 13.9432 26.108 13.9432 24.4745ZM9.84139 39.3907C10.9244 37.6486 12.4163 36.215 14.1796 35.222C15.9429 34.2289 17.9209 33.7084 19.9313 33.7084C21.9416 33.7084 23.9196 34.2289 25.6829 35.222C27.4463 36.215 28.9382 37.6486 30.0211 39.3907C27.1363 41.6983 23.5859 42.9512 19.9313 42.9512C16.2766 42.9512 12.7263 41.6983 9.84139 39.3907Z" fill="#4C241D"/>
</g>
<path id="Star 1" d="M27.8758 6.51257C27.8143 5.60284 28.8828 5.07333 29.542 5.68687L31.8234 7.81016C32.1037 8.07101 32.5086 8.14364 32.8643 7.99687L35.7483 6.80688C36.5769 6.46499 37.3844 7.31307 37.0191 8.14162L35.7288 11.0685C35.5741 11.4194 35.6279 11.8267 35.8676 12.1195L37.8722 14.5681C38.4418 15.2638 37.8747 16.3179 36.9849 16.2176L33.9272 15.873C33.5443 15.8298 33.1689 16.0159 32.9646 16.35L31.3325 19.0186C30.8576 19.7952 29.6979 19.5968 29.5178 18.7081L28.884 15.5803C28.8082 15.2062 28.5294 14.9104 28.1645 14.817L25.1207 14.0379C24.259 13.8174 24.1097 12.6432 24.8856 12.1899L27.5863 10.6124C27.9194 10.4178 28.1148 10.0477 28.0886 9.66092L27.8758 6.51257Z" fill="#FAB24F"/>
</g>
</svg>
