<svg width="37" height="44" viewBox="0 0 37 44" fill="none" xmlns="http://www.w3.org/2000/svg">
<g id="side">
<path id="Vector" d="M18.5097 12.1849C18.5097 12.1849 16.1717 3.39902 13.3267 2.6034C10.4817 1.80779 6.5267 5.8044 6.8877 7.71095C7.2487 9.61749 16.0267 13.291 16.0267 13.291L18.5097 12.1849Z" stroke="#4C241D" stroke-width="3.5" stroke-linecap="round" stroke-linejoin="round"/>
<path id="Vector_2" d="M18.1956 12.5673C18.1956 12.5673 19.4836 7.25961 21.1836 6.74222C22.8836 6.22483 25.3136 8.57945 25.1216 9.73041C24.9296 10.8814 19.7036 13.2008 19.7036 13.2008L18.1956 12.5673Z" stroke="#4C241D" stroke-width="3.5" stroke-linecap="round" stroke-linejoin="round"/>
<path id="Vector_3" d="M3.99315 14.9357H32.5831V40.8857C32.5831 41.1011 32.4959 41.3165 32.3263 41.482C32.1554 41.6489 31.9147 41.75 31.6551 41.75H4.92115C4.79351 41.75 4.66807 41.7254 4.55235 41.6786C4.43669 41.6318 4.3343 41.5644 4.24997 41.482C4.16573 41.3998 4.10121 41.3045 4.05798 41.2026L2.45159 41.8842L4.05798 41.2026C4.0148 41.1008 3.99315 40.9933 3.99315 40.8857V14.9357Z" fill="#2989C5" stroke="#4C241D" stroke-width="3.5" stroke-linecap="round" stroke-linejoin="round"/>
<path id="Vector_4" d="M5.16634 14.0107H31.5003C32.3314 14.0107 33.1202 14.3334 33.6953 14.8949C34.269 15.4549 34.5833 16.2054 34.5833 16.9788V19.3289H2.08334V16.9788C2.08334 16.2054 2.39766 15.4549 2.97134 14.8949C3.54646 14.3334 4.33526 14.0107 5.16634 14.0107Z" fill="#2989C5" stroke="#4C241D" stroke-width="3.5" stroke-linecap="round" stroke-linejoin="round"/>
<path id="Vector_5" d="M15.4826 13.8744H20.8547V41.9316H15.4826V13.8744Z" fill="#F5F5F5" stroke="#4C241D" stroke-width="3" stroke-linecap="round" stroke-linejoin="round"/>
</g>
</svg>
